<svg width="64" height="26" viewBox="0 0 64 26" fill="none" xmlns="http://www.w3.org/2000/svg">
<path d="M9.25363 5.73144V15.8138C9.25363 16.2097 9.3457 16.5043 9.52986 16.6977C9.71401 16.8818 9.93039 17.0476 10.179 17.1949C10.4276 17.333 10.644 17.5172 10.8281 17.7473C11.0123 17.9775 11.1044 18.3366 11.1044 18.8246C11.1044 19.3495 10.9524 19.7316 10.6486 19.971C10.3447 20.2104 9.9442 20.3301 9.44699 20.3301H2.26507C1.76786 20.3301 1.36733 20.2104 1.06348 19.971C0.759626 19.7316 0.607701 19.3495 0.607701 18.8246C0.607701 18.3458 0.699777 17.9914 0.883929 17.7612C1.06808 17.531 1.28446 17.3468 1.53306 17.2087C1.78167 17.0614 1.99805 16.891 2.1822 16.6977C2.36635 16.5043 2.45843 16.2097 2.45843 15.8138V5.73144C2.45843 5.33552 2.36635 5.04088 2.1822 4.84752C1.99805 4.65416 1.78167 4.48842 1.53306 4.35031C1.28446 4.20299 1.06808 4.01423 0.883929 3.78404C0.699777 3.55385 0.607701 3.19936 0.607701 2.72056C0.607701 2.19573 0.759626 1.81362 1.06348 1.57422C1.36733 1.33482 1.76786 1.21512 2.26507 1.21512H9.44699C9.9442 1.21512 10.3447 1.33482 10.6486 1.57422C10.9524 1.81362 11.1044 2.19573 11.1044 2.72056C11.1044 3.19936 11.0123 3.55385 10.8281 3.78404C10.644 4.01423 10.4276 4.20299 10.179 4.35031C9.93039 4.48842 9.71401 4.65416 9.52986 4.84752C9.3457 5.04088 9.25363 5.33552 9.25363 5.73144ZM26.6991 21.435C26.6991 22.1992 26.4597 22.8391 25.9809 23.3548C25.5021 23.8796 24.8806 24.3032 24.1163 24.6254C23.3613 24.9477 22.5464 25.1917 21.6717 25.3574C20.8062 25.5232 19.9683 25.6336 19.158 25.6889C18.357 25.7533 17.6848 25.7856 17.1416 25.7856C16.7733 25.7856 16.3037 25.7718 15.7328 25.7441C15.1712 25.7257 14.5819 25.6705 13.965 25.5784C13.3481 25.4863 12.768 25.339 12.2247 25.1364C11.6907 24.9431 11.2533 24.6715 10.9127 24.3216C10.572 23.9717 10.4016 23.5297 10.4016 22.9957C10.4016 22.3327 10.6594 21.8125 11.1751 21.435C11.6907 21.0667 12.3122 20.7905 13.0396 20.6063C12.7081 20.4774 12.4319 20.2932 12.2109 20.0539C11.9899 19.8052 11.8794 19.4738 11.8794 19.0594C11.8794 18.507 12.0544 18.065 12.4043 17.7335C12.7634 17.4021 13.2145 17.1535 13.7578 16.9877C14.3103 16.8128 14.8719 16.6885 15.4428 16.6148C14.6233 16.4215 13.8545 16.1268 13.1363 15.7309C12.4273 15.335 11.8518 14.8055 11.4099 14.1426C10.9771 13.4796 10.7607 12.6602 10.7607 11.6842C10.7607 10.6345 10.9633 9.74595 11.3684 9.01855C11.7828 8.28195 12.3352 7.68806 13.0258 7.23689C13.7164 6.77651 14.4898 6.43583 15.3461 6.21484C16.2116 5.98465 17.0955 5.85575 17.9979 5.82812C18.2833 5.0731 18.624 4.31808 19.0199 3.56306C19.4251 2.80804 19.9361 2.17732 20.553 1.6709C21.1791 1.16448 21.9526 0.911272 22.8733 0.911272C23.6283 0.911272 24.2498 1.13225 24.7378 1.57422C25.2351 2.01618 25.4837 2.62388 25.4837 3.39732C25.4837 4.02344 25.3271 4.59431 25.0141 5.10993C24.7102 5.61635 24.2038 5.86956 23.4948 5.86956C22.9976 5.86956 22.6155 5.74526 22.3485 5.49665C22.0815 5.23884 21.8513 4.98103 21.6579 4.72321C21.4645 4.4654 21.2344 4.3365 20.9673 4.3365C20.6819 4.3365 20.4379 4.51604 20.2353 4.87514C20.0328 5.22503 19.8716 5.5611 19.7519 5.88337C20.7371 6.00307 21.6717 6.27009 22.5556 6.68443C23.4396 7.08956 24.1578 7.66504 24.7102 8.41085C25.2719 9.15667 25.5527 10.0958 25.5527 11.2284C25.5527 12.232 25.3455 13.0975 24.9312 13.8249C24.5261 14.5431 23.9782 15.1324 23.2877 15.5928C22.6063 16.0532 21.8375 16.3938 20.9812 16.6148C20.1341 16.8266 19.2685 16.9325 18.3846 16.9325C18.0992 16.9325 17.8183 16.9233 17.5421 16.9049C17.4316 17.0153 17.3764 17.1258 17.3764 17.2363C17.3764 17.4205 17.5099 17.554 17.7769 17.6369C18.0531 17.7105 18.38 17.7566 18.7575 17.775C19.135 17.7934 19.4895 17.798 19.821 17.7888C20.1617 17.7796 20.3965 17.775 20.5254 17.775C21.1883 17.775 21.8789 17.8072 22.5971 17.8717C23.3153 17.9269 23.9828 18.0696 24.5997 18.2998C25.2258 18.53 25.7323 18.8937 26.119 19.3909C26.5057 19.8789 26.6991 20.5603 26.6991 21.435ZM17.7631 7.94127C17.4961 7.94127 17.3073 8.05176 17.1968 8.27274C17.0863 8.49372 17.0173 8.74693 16.9897 9.03237C16.9712 9.3178 16.962 9.55259 16.962 9.73675C16.962 9.98535 16.9758 10.3859 17.0035 10.9383C17.0403 11.4816 17.1094 12.0525 17.2106 12.6509C17.3119 13.2494 17.4639 13.7605 17.6664 14.184C17.8782 14.5984 18.1636 14.8055 18.5227 14.8055C18.8082 14.8055 19.0107 14.7042 19.1304 14.5017C19.2501 14.2899 19.3192 14.0459 19.3376 13.7697C19.3652 13.4934 19.379 13.254 19.379 13.0515C19.379 12.7845 19.3652 12.3747 19.3376 11.8223C19.31 11.2606 19.2455 10.6851 19.1442 10.0958C19.0522 9.49735 18.8956 8.99093 18.6746 8.57659C18.4537 8.15304 18.1498 7.94127 17.7631 7.94127ZM15.3599 21.8908C15.3599 22.1762 15.498 22.4018 15.7743 22.5675C16.0597 22.7333 16.4004 22.8576 16.7963 22.9404C17.2014 23.0233 17.5882 23.0739 17.9565 23.0924C18.3248 23.12 18.5964 23.1338 18.7713 23.1338C18.9739 23.1338 19.2777 23.1016 19.6829 23.0371C20.0972 22.9819 20.4793 22.876 20.8292 22.7194C21.1791 22.5629 21.3541 22.3373 21.3541 22.0427C21.3541 21.6283 21.1791 21.3383 20.8292 21.1726C20.4885 21.0068 20.1018 20.9102 19.6691 20.8825C19.2363 20.8549 18.8772 20.8411 18.5918 20.8411C18.1682 20.8411 17.7447 20.8503 17.3211 20.8687C16.8976 20.8871 16.474 20.9009 16.0505 20.9102C15.8571 21.0483 15.6914 21.2002 15.5533 21.3659C15.4244 21.5317 15.3599 21.7066 15.3599 21.8908ZM31.7419 5.74526C32.1194 5.74526 32.4048 5.87877 32.5982 6.14579C32.8007 6.4036 32.902 6.70745 32.902 7.05734V8.32799C33.6294 7.65583 34.4305 7.05734 35.3052 6.53251C36.1799 6.00767 37.0454 5.74526 37.9018 5.74526C38.7949 5.74526 39.5361 5.96624 40.1254 6.4082C40.7147 6.85017 41.1566 7.42564 41.4513 8.13463C41.7551 8.84361 41.9071 9.60784 41.9071 10.4273V16.1729C41.9071 16.4307 41.9163 16.6839 41.9347 16.9325C41.9623 17.1811 42.0636 17.4159 42.2385 17.6369C42.4503 17.9039 42.6345 18.111 42.791 18.2584C42.9567 18.4057 43.0396 18.6773 43.0396 19.0732C43.0396 19.4784 42.9153 19.7914 42.6667 20.0124C42.4181 20.2242 42.0958 20.3301 41.6999 20.3301H35.9267C35.54 20.3301 35.2408 20.215 35.029 19.9848C34.8264 19.7546 34.7251 19.4508 34.7251 19.0732C34.7251 18.7234 34.8034 18.4517 34.9599 18.2584C35.1257 18.0558 35.2868 17.8486 35.4433 17.6369C35.6091 17.4159 35.6919 17.1074 35.6919 16.7115V11.9189C35.6919 11.4862 35.6045 11.0626 35.4295 10.6483C35.2638 10.234 34.9139 10.0268 34.3798 10.0268C34.0576 10.0268 33.7814 10.0912 33.5512 10.2201C33.321 10.3398 33.1046 10.4964 32.902 10.6897V16.3386C32.902 16.5872 32.9112 16.8404 32.9297 17.0982C32.9481 17.3468 33.0401 17.577 33.2059 17.7888C33.3992 18.019 33.5604 18.2077 33.6893 18.3551C33.8182 18.4932 33.8826 18.7326 33.8826 19.0732C33.8826 19.4508 33.7768 19.7546 33.565 19.9848C33.3624 20.215 33.0678 20.3301 32.681 20.3301H26.9079C26.512 20.3301 26.1897 20.2242 25.9411 20.0124C25.6925 19.7914 25.5682 19.4784 25.5682 19.0732C25.5682 18.7694 25.6234 18.5346 25.7339 18.3689C25.8536 18.1939 25.9871 18.0328 26.1345 17.8855C26.2818 17.7381 26.4107 17.5586 26.5212 17.3468C26.6409 17.135 26.7007 16.845 26.7007 16.4767V11.3527C26.7007 10.9383 26.6363 10.6253 26.5074 10.4135C26.3785 10.2017 26.2265 10.036 26.0516 9.91629C25.8766 9.78739 25.7247 9.64927 25.5958 9.50195C25.4669 9.35463 25.4024 9.13365 25.4024 8.83901C25.4024 8.47991 25.5221 8.19908 25.7615 7.99651C26.0009 7.78474 26.268 7.619 26.5626 7.4993L29.5459 6.29771C29.8958 6.15039 30.2502 6.02148 30.6093 5.91099C30.9776 5.8005 31.3552 5.74526 31.7419 5.74526ZM49.0492 5.74526C49.4267 5.74526 49.7167 5.87416 49.9193 6.13198C50.1311 6.38979 50.237 6.69824 50.237 7.05734V16.1729C50.237 16.4307 50.2462 16.6931 50.2646 16.9601C50.2922 17.2179 50.3981 17.4435 50.5823 17.6369C50.8217 17.8947 51.0196 18.0972 51.1762 18.2446C51.3419 18.3919 51.4248 18.6681 51.4248 19.0732C51.4248 19.4784 51.2958 19.7914 51.038 20.0124C50.7894 20.2242 50.4672 20.3301 50.0712 20.3301H44.2014C43.8055 20.3301 43.4786 20.2242 43.2208 20.0124C42.9722 19.8006 42.8479 19.4876 42.8479 19.0732C42.8479 18.6773 42.9262 18.4011 43.0827 18.2446C43.2392 18.0788 43.4418 17.8763 43.6904 17.6369C43.8745 17.4527 43.9758 17.2225 43.9942 16.9463C44.0219 16.6701 44.0357 16.4122 44.0357 16.1729V11.3527C44.0357 11.1685 44.0219 10.9798 43.9942 10.7864C43.9666 10.5838 43.8883 10.4135 43.7594 10.2754C43.7226 10.2294 43.6766 10.1925 43.6213 10.1649C43.5753 10.1373 43.5339 10.105 43.497 10.0682C43.2945 9.85645 43.1057 9.6861 42.9308 9.5572C42.765 9.41908 42.6821 9.17969 42.6821 8.83901C42.6821 8.4707 42.7972 8.18527 43.0274 7.9827C43.2576 7.78013 43.5292 7.619 43.8423 7.4993L46.8256 6.29771C47.1755 6.1596 47.5392 6.0353 47.9167 5.9248C48.2942 5.80511 48.6717 5.74526 49.0492 5.74526ZM46.9775 5.69001C46.3882 5.69001 45.7943 5.60254 45.1958 5.42759C44.5973 5.25265 44.0955 4.96261 43.6904 4.55748C43.2945 4.14314 43.0965 3.58608 43.0965 2.8863C43.0965 2.18652 43.2991 1.63867 43.7042 1.24274C44.1093 0.837611 44.6111 0.552176 45.2096 0.386439C45.8081 0.220703 46.3974 0.137834 46.9775 0.137834C47.5576 0.137834 48.1469 0.220703 48.7453 0.386439C49.353 0.552176 49.8595 0.837611 50.2646 1.24274C50.6789 1.63867 50.8861 2.18652 50.8861 2.8863C50.8861 3.59528 50.6835 4.15695 50.2784 4.57129C49.8733 4.97642 49.3669 5.26646 48.7592 5.44141C48.1607 5.60714 47.5668 5.69001 46.9775 5.69001ZM57.3791 8.107C57.0661 8.107 56.7852 8.17606 56.5366 8.31417C56.288 8.45229 56.1637 8.70089 56.1637 9.05999C56.1637 9.35463 56.2328 9.58022 56.3709 9.73675C56.509 9.89328 56.707 10.0268 56.9648 10.1373C57.241 10.257 57.531 10.3444 57.8349 10.3997C58.1387 10.4549 58.4334 10.5148 58.7188 10.5792C59.5659 10.7634 60.3578 11.0765 61.0944 11.5184C61.831 11.9512 62.4249 12.5128 62.8761 13.2034C63.3364 13.8848 63.5666 14.695 63.5666 15.6342C63.5666 16.8956 63.2812 17.8993 62.7103 18.6451C62.1394 19.3909 61.3798 19.9249 60.4314 20.2472C59.4923 20.5695 58.461 20.7306 57.3377 20.7306C57.0523 20.7306 56.6563 20.6938 56.1499 20.6201C55.6527 20.5465 55.2844 20.4452 55.045 20.3163H55.0312C54.9391 20.2702 54.7872 20.2196 54.5754 20.1643C54.3636 20.1091 54.2071 20.0815 54.1058 20.0815C53.8204 20.0815 53.5764 20.192 53.3738 20.4129C53.1713 20.6431 52.9226 20.7582 52.628 20.7582C52.2321 20.7582 51.919 20.6293 51.6888 20.3715C51.4678 20.1137 51.2975 19.8098 51.1778 19.46C51.0673 19.1009 50.966 18.7694 50.874 18.4655C50.8095 18.2077 50.7358 17.9545 50.653 17.7059C50.5701 17.4481 50.5287 17.1857 50.5287 16.9187C50.5287 16.4399 50.6576 16.0532 50.9154 15.7585C51.1732 15.4639 51.5461 15.3165 52.0341 15.3165C52.5129 15.3165 52.9088 15.4224 53.2219 15.6342C53.535 15.8368 53.8112 16.09 54.0506 16.3938C54.2992 16.6977 54.5478 17.0061 54.7964 17.3192C55.0542 17.623 55.3627 17.8809 55.7218 18.0926C56.0809 18.2952 56.532 18.3965 57.0753 18.3965C57.4528 18.3965 57.7382 18.286 57.9316 18.065C58.1249 17.8348 58.2216 17.5402 58.2216 17.1811C58.2216 16.6655 58.0835 16.334 57.8073 16.1867C57.531 16.0393 57.1766 15.9242 56.7438 15.8414C55.9519 15.6848 55.1969 15.5007 54.4787 15.2889C53.7697 15.0771 53.139 14.7871 52.5866 14.4188C52.0433 14.0505 51.6106 13.5625 51.2883 12.9548C50.9752 12.3471 50.8187 11.5645 50.8187 10.6069C50.8187 9.47433 51.1272 8.55357 51.7441 7.84459C52.361 7.12639 53.1436 6.59696 54.092 6.25628C55.0496 5.9156 56.021 5.74526 57.0062 5.74526C57.3837 5.74526 57.752 5.75907 58.1111 5.78669C58.4794 5.81431 58.8431 5.88797 59.2022 6.00767C59.2483 6.01688 59.3541 6.05371 59.5199 6.11816C59.6948 6.18262 59.8652 6.24707 60.0309 6.31152C60.1966 6.36677 60.2795 6.39439 60.2795 6.39439C60.5834 6.39439 60.8412 6.2885 61.0529 6.07673C61.2739 5.85575 61.5363 5.74526 61.8402 5.74526C62.2269 5.74526 62.5124 5.89718 62.6965 6.20103C62.8807 6.49567 63.0096 6.84096 63.0832 7.23689C63.1661 7.63281 63.2305 7.96889 63.2766 8.24512C63.3134 8.45689 63.3502 8.67327 63.3871 8.89425C63.4239 9.10603 63.4423 9.3178 63.4423 9.52958C63.4423 9.89788 63.3548 10.2478 63.1799 10.5792C63.0142 10.9015 62.7149 11.0626 62.2822 11.0626C61.8494 11.0626 61.4673 10.9153 61.1358 10.6207C60.8043 10.3168 60.4729 9.97154 60.1414 9.58482C59.8099 9.1981 59.4278 8.85742 58.9951 8.56278C58.5623 8.25893 58.0237 8.107 57.3791 8.107Z" fill="white"/>
</svg>
